# xmcd
#
# Track frame offsets: 
#        150
#        20095
#        34325
#        56315
#        73972
#        105790
#        124033
#        137103
#        153234
#        177744
#        193387
#        214353
#        239169
#        258901
#        281669
#        297737
#        311571
#
# Disc length: 4322 seconds
#
# Revision: 0
# Processed by: cddbd v1.5.1PL0 Copyright (c) Steve Scherf et al.
# Submitted via: ExactAudioCopy v0.95a5
#
DISCID=1610e011
DTITLE=Martin Lee Gore - Counterfeit 1&2 double album (LP)
DYEAR=2004
DGENRE=Blues
TTITLE0=Cntrft2 - In My Time Of Dying
TTITLE1=Cntrft2 - Stardust
TTITLE2=Cntrft2 - I Cast A Lonesome Shadow
TTITLE3=Cntrft2 - In My Other World
TTITLE4=Cntrft2 - Loverman
TTITLE5=Cntrft2 - By This River
TTITLE6=Cntrft2 - Lost In The Stars
TTITLE7=Cntrft2 - On My Love
TTITLE8=Cntrft2 - Das Lied Vom Einsamen Medchen
TTITLE9=Cntrft2 - Tiny Girls
TTITLE10=Cntrft2 - Candy Says
TTITLE11=Cntrft1 - Compulsion
TTITLE12=Cntrft1 - In A Manner Of Speaking
TTITLE13=Cntrft1 - Smile In The Crowd
TTITLE14=Cntrft1 - Gone
TTITLE15=Cntrft1 - Never Turn Your Back On Mother Earth
TTITLE16=Cntrft1 - Motherless Child
EXTD=
EXTT0=
EXTT1=
EXTT2=
EXTT3=
EXTT4=
EXTT5=
EXTT6=
EXTT7=
EXTT8=
EXTT9=
EXTT10=
EXTT11=
EXTT12=
EXTT13=
EXTT14=
EXTT15=
EXTT16=
PLAYORDER=
